# xmcd CD database file
#
# Track frame offsets:
#	150
#	12100
#	26740
#	40525
#	54765
#	69032
#	82672
#	96890
#	112060
#	126230
#	141162
#	155077
#	169390
#	184462
#	198725
#	213657
#	227687
#	243790
#	258465
#	272522
#
# Disc length: 3812 seconds
#
# Revision: 1
# Processed by: cddbd v1.5.1PL2 Copyright (c) Steve Scherf et al.
# Submitted via: CDex 1.51
#
DISCID=130ee214
DTITLE=Marcelo Muniz and Antonieta Kraus - Reiki
DYEAR=1900
DGENRE=New Age
TTITLE0=Introdução
TTITLE1=Om
TTITLE2=Om Namaha Shivaya
TTITLE3=Pedras
TTITLE4=Florestas Do Sul
TTITLE5=Orocongo
TTITLE6=Amanhecer
TTITLE7=Coração
TTITLE8=Horizontes
TTITLE9=Bambú
TTITLE10=Curió Brilhante
TTITLE11=Pássaros Da Amazônia
TTITLE12=Borboletas
TTITLE13=Caminhando
TTITLE14=Azul
TTITLE15=Uirapuru
TTITLE16=Sonhos
TTITLE17=Realejo
TTITLE18=Mãos
TTITLE19=Mar
EXTD=
EXTT0=
EXTT1=
EXTT2=
EXTT3=
EXTT4=
EXTT5=
EXTT6=
EXTT7=
EXTT8=
EXTT9=
EXTT10=
EXTT11=
EXTT12=
EXTT13=
EXTT14=
EXTT15=
EXTT16=
EXTT17=
EXTT18=
EXTT19=
PLAYORDER=
